<?xml version="1.0" standalone="no"?>
<!DOCTYPE svg PUBLIC "-//W3C//DTD SVG 20010904//EN"
 "http://www.w3.org/TR/2001/REC-SVG-20010904/DTD/svg10.dtd">
<svg version="1.0" xmlns="http://www.w3.org/2000/svg"
 width="400.000000pt" height="400.000000pt" viewBox="0 0 400.000000 400.000000"
 preserveAspectRatio="xMidYMid meet">
<metadata>
Created by potrace 1.11, written by Peter Selinger 2001-2013
</metadata>
<g transform="translate(0.000000,400.000000) scale(0.100000,-0.100000)"
fill="#000000" stroke="none">
<path d="M0 2000 l0 -2000 2000 0 2000 0 0 2000 0 2000 -2000 0 -2000 0 0
-2000z m3240 1455 c0 -3 -57 -103 -127 -223 -69 -119 -258 -445 -419 -724
l-293 -508 293 -507 c161 -280 350 -606 419 -726 70 -120 127 -220 127 -222 0
-3 -431 -5 -959 -5 l-958 0 -421 730 -422 730 422 730 421 730 958 0 c528 0
959 -2 959 -5z"/>
<path d="M1433 3248 c-6 -7 -171 -291 -366 -630 l-356 -618 362 -627 362 -628
263 -3 262 -2 0 1260 0 1260 -259 0 c-195 0 -261 -3 -268 -12z"/>
<path d="M2160 2000 l0 -1260 366 0 c308 0 365 2 361 14 -3 7 -166 291 -361
630 l-356 616 356 616 c195 339 358 623 361 630 4 12 -53 14 -361 14 l-366 0
0 -1260z"/>
</g>
</svg>
